<?xml version="1.0" encoding="UTF-8" standalone="no"?>
<!-- Created with Inkscape (http://www.inkscape.org/) -->

<svg
   xmlns:dc="http://purl.org/dc/elements/1.1/"
   xmlns:cc="http://creativecommons.org/ns#"
   xmlns:rdf="http://www.w3.org/1999/02/22-rdf-syntax-ns#"
   xmlns:svg="http://www.w3.org/2000/svg"
   xmlns="http://www.w3.org/2000/svg"
   xmlns:sodipodi="http://sodipodi.sourceforge.net/DTD/sodipodi-0.dtd"
   xmlns:inkscape="http://www.inkscape.org/namespaces/inkscape"
   version="1.1"
   width="2842.5906"
   height="1557.2474"
   id="svg12585"
   inkscape:version="0.48.4+osxmenu r10012"
   sodipodi:docname="giverspace_logo.svg">
  <sodipodi:namedview
     pagecolor="#ffffff"
     bordercolor="#666666"
     borderopacity="1"
     objecttolerance="10"
     gridtolerance="10"
     guidetolerance="10"
     inkscape:pageopacity="0"
     inkscape:pageshadow="2"
     inkscape:window-width="1332"
     inkscape:window-height="838"
     id="namedview3684"
     showgrid="false"
     inkscape:object-paths="true"
     inkscape:object-nodes="true"
     inkscape:snap-global="false"
     inkscape:zoom="0.31542052"
     inkscape:cx="1538.5812"
     inkscape:cy="823.0751"
     inkscape:window-x="128"
     inkscape:window-y="72"
     inkscape:window-maximized="0"
     inkscape:current-layer="layer1" />
  <defs
     id="defs12587">
    <inkscape:path-effect
       effect="spiro"
       id="path-effect6392" />
    <inkscape:path-effect
       effect="spiro"
       id="path-effect6394" />
    <inkscape:path-effect
       is_visible="true"
       id="path-effect6392-1"
       effect="spiro" />
    <inkscape:path-effect
       effect="spiro"
       id="path-effect6394-7"
       is_visible="true" />
  </defs>
  <metadata
     id="metadata12590">
    <rdf:RDF>
      <cc:Work
         rdf:about="">
        <dc:format>image/svg+xml</dc:format>
        <dc:type
           rdf:resource="http://purl.org/dc/dcmitype/StillImage" />
        <dc:title />
      </cc:Work>
    </rdf:RDF>
  </metadata>
  <g
     transform="translate(989.8665,140.54695)"
     id="layer1">
    <path
       d="m -749.10494,151.25219 546.60702,89.20521 c 75.10797,12.25748 150.311313,29.92119 217.175149,66.26236 l 189.376291,358.26195 217.1781,66.26295 85.87121,131.59332 C 446.16418,862.35937 385.25141,858.60237 324.71583,851.58862 208.5441,838.12878 93.769072,812.64468 -17.182662,775.6751 L -189.08574,467.44318 -934.78933,431.55651 -749.10494,151.25219"
       id="path6539"
       style="fill:#ff2a2a;stroke:none" />
    <path
       d="M 413.28419,-97.921832 C 292.51248,-93.659217 190.33126,-48.728039 106.38663,34.0987 -97.083989,-59.53432 -244.7496,-99.913767 -268.28247,-60.214704 c -3.44976,5.815151 -4.16026,13.084385 -2.21479,21.778761 11.35626,50.643666 111.34602,147.457713 264.8521732,261.529993 -19.3844262,65.76506 -23.5765792,135.39154 -11.9964792,203.20661 0.05906,0.12994 0.13584,0.24806 0.183089,0.36618 1.931296,5.2334 3.841921,10.50991 5.906104,15.68839 43.241545,108.41363 115.193253,205.27966 206.529393,277.95545 l 237.72071,78.44075 c 10.45971,-0.21852 20.95663,-0.91131 31.37559,-1.84566 l 0.18309,0.18309 c 87.56627,-7.73877 173.81134,-41.12716 246.57986,-101.51058 11.1655,-9.2655 21.71203,-18.90072 31.74532,-28.97712 203.39561,93.51903 351.14741,133.99179 374.66851,94.31281 23.5317,-39.69552 -82.9388,-149.88217 -262.82166,-283.49302 5.39138,-18.4401 9.2483,-35.05296 12.17839,-52.60095 1.5831,-8.92003 2.75256,-18.08109 3.69013,-26.76174 C 837.26478,116.51758 617.83234,-88.628789 413.28419,-97.921832 z M -93.867524,13.242472 C -58.582684,12.262059 3.1709556,29.260419 81.839088,60.67617 49.431122,98.988191 23.842351,142.62372 5.9822614,188.9479 -70.764615,125.58249 -119.09132,73.135688 -125.98256,42.402683 c -1.52259,-6.883565 -1.07196,-12.556969 1.6608,-17.164322 4.55242,-7.680889 14.96784,-11.567105 30.453645,-11.99707 z M 842.80346,511.75491 c 94.2065,77.73674 145.42365,138.88441 130.48829,164.07867 -14.93713,25.19899 -93.10738,9.53718 -206.52939,-35.80576 28.84542,-34.02093 51.8745,-71.46741 69.02819,-111.10859 2.46343,-5.69289 4.79398,-11.38874 7.01291,-17.16432 z"
       id="path6541"
       style="fill:#000000;fill-opacity:1;stroke:none"
       inkscape:connector-curvature="0"
       sodipodi:nodetypes="cccccccccccccccccccccccccccccsc" />
    <path
       d="M 1611.962,571.03862 1065.3555,481.8334 C 990.24735,469.57588 915.04385,451.91216 848.17978,415.57104 L 658.80349,57.309691 441.6254,-8.95385 355.75418,-140.54659 c 60.93866,0.4786 121.85143,4.23561 182.38701,11.24936 116.17172,13.45984 230.94675,38.943942 341.89848,75.913527 l 171.90313,308.231333 745.7035,35.88726 -185.6843,280.30373"
       id="path6543"
       style="fill:#ff2a2a;stroke:none"
       inkscape:connector-curvature="0" />
    <path
       d="m -266.43622,-62.798624 -25.47067,26.208339 c -3.44976,5.81515 -4.16026,13.084384 -2.21479,21.77876 0.34846,1.540903 0.893,3.126102 1.47653,4.79871 24.47785,78.485634 237.952818,255.094105 529.33462,437.051745 10.92157,6.97983 21.50767,13.52557 32.11504,20.11737 0.49611,0.30712 0.97628,0.6166 1.47652,0.92312 22.0723,13.69921 43.65911,26.72335 63.85917,38.38968 333.27439,197.55979 621.25015,311.5423 717.4074,312.35734 20.5438,0.17718 35.139,-7.55686 42.081,-14.28392 l 16.4261,-16.05692 c -8.0175,5.45074 -20.4322,7.98505 -36.9132,7.75176 -0.059,-5.9e-4 -0.124,10e-4 -0.1831,0 -2.6931,-0.0591 -5.5871,-0.18309 -8.49,-0.36618 -1.4239,-0.0886 -2.956,-0.24215 -4.4296,-0.36618 -1.5704,-0.13584 -3.1727,-0.1949 -4.7987,-0.36618 -0.5977,-0.065 -1.2408,-0.11812 -1.8456,-0.18308 -2.6147,-0.30122 -5.1838,-0.7111 -7.9361,-1.10681 -3.3901,-0.49021 -6.926,-1.02766 -10.5205,-1.66139 -3.5549,-0.62722 -7.323,-1.4464 -11.0739,-2.21478 -3.3671,-0.69043 -6.8145,-1.22788 -10.3357,-2.02993 -0.4135,-0.0945 -0.8741,-0.27168 -1.2917,-0.37209 -7.9827,-1.84093 -16.36345,-4.05985 -25.10094,-6.4595 -5.3657,-1.47358 -11.15663,-3.11902 -16.79578,-4.79871 -1.31647,-0.38981 -2.72921,-0.88828 -4.06045,-1.29226 -4.04804,-1.22788 -8.18468,-2.54553 -12.36561,-3.87559 -7.67026,-2.43863 -15.52124,-4.97589 -23.62442,-7.75176 -8.05829,-2.75992 -16.44909,-5.77322 -24.91667,-8.85915 -3.55134,-1.29462 -7.08319,-2.52486 -10.70482,-3.87618 -9.39602,-3.50882 -19.12869,-7.19186 -28.97712,-11.07395 -7.60411,-2.99557 -15.57794,-6.19904 -23.43955,-9.41256 -1.63481,-0.66857 -3.15327,-1.35249 -4.79871,-2.02992 -5.47378,-2.25318 -11.01961,-4.65874 -16.61092,-7.01409 -7.4665,-3.14619 -15.0334,-6.27229 -22.7013,-9.59742 -7.38972,-3.20229 -14.94776,-6.60067 -22.51761,-9.96597 -6.51089,-2.89694 -13.29405,-5.84468 -19.9331,-8.85915 -0.85875,-0.3898 -1.72282,-0.90009 -2.58333,-1.29226 -8.42152,-3.83365 -17.03971,-7.7931 -25.65494,-11.81221 -5.93387,-2.76819 -11.88072,-5.45074 -17.90259,-8.30516 -11.33322,-5.37338 -22.88674,-10.93988 -34.51409,-16.61151 -0.66089,-0.29531 -1.36726,-0.62546 -2.03052,-0.92253 -0.78256,-0.34846 -1.61414,-0.75421 -2.39906,-1.1074 -11.16785,-5.02137 -22.53533,-10.24709 -34.14437,-15.68838 -11.88545,-5.56946 -24.05261,-11.35449 -36.35975,-17.3486 -0.53155,-0.25987 -1.1263,-0.47839 -1.66139,-0.73826 -5.95453,-2.90521 -12.04137,-6.04254 -18.08685,-9.04402 -7.01409,-3.48224 -13.91065,-6.91073 -21.04109,-10.52054 -12.88712,-6.52329 -26.07782,-13.37497 -39.31222,-20.30165 -0.40752,-0.21262 -0.88532,-0.34255 -1.29225,-0.55517 -6.03781,-3.1639 -12.16776,-6.53688 -18.27172,-9.78169 -21.33226,-11.3409 -42.9421,-22.9588 -64.96715,-35.25236 -0.18899,-0.10631 -0.36027,-0.25987 -0.55517,-0.36618 -14.1463,-7.89941 -28.44557,-15.9075 -42.81926,-24.17782 -0.11812,-0.0709 -0.25396,-0.11812 -0.37209,-0.18309 -14.49594,-8.34296 -29.0598,-16.95111 -43.74179,-25.65434 C 215.48951,384.50316 98.802601,304.89773 11.516281,236.02487 c -0.683927,-0.50202 -1.347182,-0.9751 -2.0299278,-1.47652 -1.2095702,-0.8871 -2.3033808,-1.87637 -3.5064543,-2.7682 -30.0195489,-22.08705 -58.1001229,-43.5646 -83.9777199,-64.22888 -4.104743,-3.27789 -8.003363,-6.36147 -11.99648,-9.59742 -4.456746,-3.61395 -8.789465,-7.14521 -13.104469,-10.70482 -16.04098,-13.22022 -31.21966,-26.17703 -45.21831,-38.57395 -0.32484,-0.2894 -0.60065,-0.63668 -0.92313,-0.92312 -0.96033,-0.85343 -2.00276,-1.73462 -2.95305,-2.58392 -12.5676,-11.216286 -24.3178,-22.052807 -35.0675,-32.483578 -0.25986,-0.253962 -0.47839,-0.490207 -0.73826,-0.738263 -5.11469,-4.973531 -9.89922,-9.801771 -14.58099,-14.580991 -0.81977,-0.838076 -1.59229,-1.56689 -2.39906,-2.39906 -1.55567,-1.602326 -2.92411,-3.035147 -4.42958,-4.613849 -3.15209,-3.312143 -6.30063,-6.574675 -9.22829,-9.782281 -3.44148,-3.765141 -6.4725,-7.457047 -9.59742,-11.073946 -0.54926,-0.636087 -1.12157,-1.214295 -1.66138,-1.845657 -3.47988,-4.074031 -6.71761,-8.122666 -9.78169,-11.99648 -0.10631,-0.135841 -0.25987,-0.236244 -0.36618,-0.372085 -2.81308,-3.567878 -5.30132,-6.9443975 -7.75177,-10.3356828 -0.9999,-1.3826191 -2.01457,-2.7073583 -2.95305,-4.0598563 -1.89113,-2.7268485 -3.71317,-5.5198454 -5.35211,-8.1208938 -1.12098,-1.7783281 -2.13683,-3.4497561 -3.13791,-5.1678411 -1.22729,-2.100802 -2.4599,-4.081709 -3.50646,-6.090966 -0.18309,-0.34846 -0.37799,-0.761297 -0.55517,-1.107395 -3.47161,-6.828047 -5.92028,-13.126908 -7.19836,-18.825708 -1.94547,-8.694377 -1.23497,-15.96361 2.21479,-21.778761 0.53155,-0.896547 1.18831,-1.768878 1.84625,-2.583921 z M 1116.1457,762.39463 c -0.254,0.35437 -0.4607,0.76543 -0.7383,1.10799 l 1.1074,-1.10799 c -0.1122,0.005 -0.254,-0.003 -0.3662,0 z"
       id="path6545"
       style="fill:#ffffff;fill-opacity:1;stroke:none" />
    <g
       id="text6547"
       style="font-size:527.76782227px;font-style:normal;font-variant:normal;font-weight:normal;font-stretch:normal;line-height:125%;letter-spacing:0px;word-spacing:0px;fill:#000000;fill-opacity:1;stroke:none;font-family:Helvetica;-inkscape-font-specification:Helvetica">
      <path
         d="m -746.56556,1062.5683 0,225.3568 c -2.7e-4,33.4253 -11.963,61.9247 -35.88821,85.4984 -23.57384,23.9254 -52.2492,35.8881 -86.02615,35.8882 -17.24056,-10e-5 -35.18464,-4.0463 -53.83232,-12.1386 -7.037,-4.926 -8.79622,-10.5555 -5.27768,-16.8886 3.8702,-8.0925 9.49972,-10.0277 16.88857,-5.8055 13.36999,6.3332 27.44379,9.4998 42.22143,9.4999 26.74005,-10e-5 49.43405,-9.324 68.08204,-27.9717 18.99941,-18.6479 28.49922,-41.3419 28.49947,-68.0821 l 0,-31.6661 c -10.90744,15.8331 -24.80532,28.3236 -41.69366,37.4716 -16.88876,8.7961 -35.1847,13.1942 -54.88785,13.1942 -33.77726,0 -62.45262,-12.4905 -86.02616,-37.4716 -23.57367,-25.3328 -35.36048,-55.5914 -35.36044,-90.776 -4e-5,-35.5362 11.78677,-65.7949 35.36044,-90.7761 23.92538,-25.3326 52.60074,-37.999 86.02616,-37.9993 19.35131,3e-4 37.47132,4.5743 54.36008,13.722 17.24019,9.1482 31.31399,21.4628 42.22143,36.9437 l 0,-37.9992 c -2.5e-4,-3.5183 1.2312,-6.5089 3.69437,-8.9721 2.81451,-2.4627 5.80519,-3.6941 8.97205,-3.6944 3.51819,3e-4 6.50887,1.2317 8.97206,3.6944 2.46264,2.4632 3.6941,5.4538 3.69437,8.9721 m -217.96811,116.1089 c -5e-5,28.4995 9.32383,52.9528 27.9717,73.3597 18.99953,20.0552 41.69353,30.0828 68.08205,30.0828 26.74005,0 49.43405,-10.0276 68.08204,-30.0828 18.99941,-20.4069 28.49922,-45.0361 28.49947,-73.8875 -2.5e-4,-28.8511 -9.50006,-53.1284 -28.49947,-72.832 -18.64799,-20.0549 -41.34199,-30.0825 -68.08204,-30.0827 -26.38852,2e-4 -49.08252,10.0278 -68.08205,30.0827 -18.64787,20.0554 -27.97175,44.5086 -27.9717,73.3598"
         id="path12626"
         style="font-family:Quicksand;-inkscape-font-specification:Quicksand"
         inkscape:connector-curvature="0" />
      <path
         d="m -623.51318,1295.8416 0,-233.2733 c -5e-5,-3.5183 1.23141,-6.5089 3.69438,-8.9721 2.46286,-2.4627 5.45354,-3.6941 8.97205,-3.6944 3.87023,3e-4 7.03684,1.2317 9.49982,3.6944 2.46284,2.4632 3.6943,5.4538 3.69438,8.9721 l 0,233.2733 c -8e-5,3.5185 -1.40746,6.5092 -4.22215,8.9721 -2.46298,2.4629 -5.45366,3.6944 -8.97205,3.6944 -3.51851,0 -6.50919,-1.2315 -8.97205,-3.6944 -2.46297,-2.4629 -3.69443,-5.4536 -3.69438,-8.9721 m 0,-305.57754 0,-12.13866 c -5e-5,-3.51812 1.23141,-6.5088 3.69438,-8.97205 2.46286,-2.46258 5.45354,-3.69403 8.97205,-3.69438 3.51839,3.5e-4 6.50907,1.2318 8.97205,3.69438 2.81469,2.46325 4.22207,5.45393 4.22215,8.97205 l 0,12.13866 c -8e-5,3.87061 -1.40746,7.21314 -4.22215,10.02754 -2.46298,2.4633 -5.45366,3.6947 -8.97205,3.6944 -3.51851,3e-4 -6.50919,-1.2311 -8.97205,-3.6944 -2.46297,-2.8144 -3.69443,-6.15693 -3.69438,-10.02754"
         id="path12628"
         style="font-family:Quicksand;-inkscape-font-specification:Quicksand"
         inkscape:connector-curvature="0" />
      <path
         d="m -373.21929,1298.4805 c -0.352,2.111 -1.58346,4.398 -3.69438,6.8609 -1.75937,2.1111 -4.22229,3.1667 -7.38875,3.1667 -2.8149,0 -5.62966,-0.7037 -8.44428,-2.1111 -2.11121,-2.1111 -3.51858,-4.0462 -4.22215,-5.8055 l -97.10928,-231.1623 c -1.40741,-3.1663 -1.40741,-6.3329 0,-9.4998 3.51842,-7.7403 8.79609,-10.0273 15.83304,-6.861 3.5184,1.4077 5.80539,3.6947 6.86098,6.861 l 86.02616,203.7184 86.02615,-203.7184 c 1.05531,-3.1663 3.16638,-5.4533 6.33321,-6.861 3.51822,-1.4071 6.86075,-1.4071 10.02759,0 7.3885,3.1669 9.49957,8.6205 6.33322,16.3608 l -96.58151,229.0513"
         id="path12630"
         style="font-family:Quicksand;-inkscape-font-specification:Quicksand"
         inkscape:connector-curvature="0" />
      <path
         d="m 63.26119,1170.2329 0,2.1111 c -2.81e-4,3.5185 -1.231738,6.3333 -3.694375,8.4442 -2.463191,2.1112 -5.453872,3.1668 -8.972053,3.1667 l -212.162662,0 c 1.40732,28.1477 11.78674,51.7213 31.1383,70.7208 19.35138,18.9997 42.397218,28.4995 69.137584,28.4995 17.240242,0 33.249183,-4.2221 48.026872,-12.6664 14.7772797,-8.4443 26.564083,-19.8792 35.360444,-34.3049 4.221899,-7.0369 9.851416,-8.4442 16.88857,-4.2222 7.036641,4.9259 8.44402,10.9073 4.222143,17.9441 -11.259297,17.9442 -26.212703,32.1939 -44.8602652,42.7492 -18.2961488,10.5554 -38.1753838,15.8331 -59.6377638,15.8331 -34.832798,0 -64.563684,-12.4905 -89.192764,-37.4716 -24.27736,-25.3328 -36.41601,-55.7673 -36.41598,-91.3038 -3e-5,-35.888 12.13862,-66.4985 36.41598,-91.8316 24.62908,-25.3326 53.832199,-37.999 87.60946,-37.9993 34.128797,3e-4 62.98007626,11.6112 86.553923,34.8327 23.573365,22.8701 36.767547,51.3696 39.582587,85.4984 m -27.443927,-11.0831 c -4.222392,-24.2772 -15.481427,-44.3323 -33.7771404,-60.1656 -18.2961526,-15.8328 -39.5827666,-23.7493 -63.8599066,-23.7495 -23.925606,2e-4 -45.036296,7.9167 -63.332136,23.7495 -18.29603,15.4814 -29.90691,35.5366 -34.83268,60.1656 l 195.801863,0"
         id="path12632"
         style="font-family:Quicksand;-inkscape-font-specification:Quicksand"
         inkscape:connector-curvature="0" />
      <path
         d="m 153.1797,1295.8416 0,-232.7456 c -5e-5,-3.5182 1.23141,-6.5089 3.69437,-8.972 2.46286,-2.4627 5.45354,-3.6942 8.97206,-3.6944 3.51838,2e-4 6.50906,1.2317 8.97205,3.6944 2.46284,2.4631 3.6943,5.4538 3.69437,8.972 l 0,56.9989 c 1.40731,-2.8145 2.63877,-4.9256 3.69438,-6.3332 27.09197,-42.2212 61.57277,-63.3319 103.44249,-63.3321 3.51827,2e-4 6.50895,1.2317 8.97205,3.6944 2.46273,2.4631 3.69418,5.4538 3.69438,8.972 -2e-4,3.5187 -1.23165,6.5094 -3.69438,8.9721 -2.4631,2.4631 -5.45378,3.6946 -8.97205,3.6943 -28.14777,3e-4 -53.12875,14.0741 -74.94303,42.2215 -12.66652,16.8887 -23.04594,36.9439 -31.1383,60.1655 -0.70377,1.4075 -1.05561,2.8149 -1.05554,4.2221 l 0,113.4701 c -7e-5,3.5185 -1.23153,6.5092 -3.69437,8.9721 -2.46299,2.4629 -5.45367,3.6944 -8.97205,3.6944 -3.51852,0 -6.5092,-1.2315 -8.97206,-3.6944 -2.46296,-2.4629 -3.69442,-5.4536 -3.69437,-8.9721"
         id="path12634"
         style="font-family:Quicksand;-inkscape-font-specification:Quicksand"
         inkscape:connector-curvature="0" />
      <path
         d="m 368.74809,1271.5643 c -5.98139,-5.2776 -6.50916,-10.9071 -1.5833,-16.8886 2.11104,-2.8147 4.9258,-4.398 8.44429,-4.7499 3.5184,-0.3518 6.68501,0.7038 9.49982,3.1666 27.44385,20.0552 52.42483,30.0828 74.94303,30.0828 22.51794,0 40.28611,-5.2776 53.30455,-15.833 13.01808,-8.7961 19.35129,-18.9996 18.99964,-30.6106 -2e-4,-11.9626 -5.80564,-22.518 -17.41634,-31.666 -11.25921,-9.1479 -29.73107,-15.833 -55.41562,-20.0552 l -1.05554,-0.5278 c -27.44402,-4.9257 -46.97141,-11.6107 -58.58222,-20.0552 -18.64785,-10.907 -27.97173,-26.3882 -27.9717,-46.4435 -3e-5,-20.055 9.32385,-36.9435 27.9717,-50.6657 16.88849,-11.6107 37.99918,-17.4161 63.33213,-17.4164 10.20338,3e-4 20.40688,1.7595 30.61054,5.2777 10.55519,3.1669 18.4717,6.3335 23.74955,9.4998 5.62934,2.815 13.194,7.2131 22.69402,13.1942 2.81455,2.1113 4.57378,4.9261 5.27767,8.4443 0.70348,3.5187 0.17572,6.6853 -1.5833,9.4998 -1.75943,2.815 -4.39827,4.5742 -7.91652,5.2777 -3.51864,0.7039 -6.68525,0.1761 -9.49982,-1.5833 -8.79631,-5.9812 -15.48136,-10.2033 -20.05517,-12.6664 -4.22231,-2.8146 -10.55552,-5.6293 -18.99965,-8.4443 -8.44442,-3.1664 -16.53686,-4.7497 -24.27732,-4.7499 -20.40712,2e-4 -36.41607,4.7501 -48.02687,14.2497 -11.61096,9.1482 -17.4164,18.8239 -17.41634,29.0272 -6e-5,10.2037 4.92577,19.1758 14.7775,26.9162 12.3145,8.4444 29.90674,14.4258 52.77679,17.9441 l 1.05553,0 c 22.86979,3.5186 43.80456,10.5555 62.80437,21.1107 19.35128,12.6666 29.02701,29.731 29.02723,51.1935 -2.2e-4,21.1108 -9.67595,38.8789 -29.02723,53.3045 -18.99981,14.0739 -40.63827,21.1108 -64.91544,21.1108 -33.42539,-0.3519 -65.26735,-12.6665 -95.52598,-36.9438"
         id="path12636"
         style="font-family:Quicksand;-inkscape-font-specification:Quicksand"
         inkscape:connector-curvature="0" />
      <path
         d="m 644.86952,1404.034 0,-341.4657 c -5e-5,-3.5183 1.2314,-6.5089 3.69437,-8.9721 2.46286,-2.4627 5.45354,-3.6941 8.97205,-3.6944 3.51839,3e-4 6.50907,1.2317 8.97206,3.6944 2.81469,2.4632 4.22207,5.4538 4.22214,8.9721 l 0,37.4715 c 11.25896,-15.481 25.50868,-27.6196 42.74919,-36.416 17.24028,-9.1477 35.71214,-13.7217 55.41563,-13.722 34.83246,3e-4 64.38743,12.4908 88.66499,37.4715 24.27703,24.9812 36.41568,55.2399 36.41598,90.7761 -3e-4,35.1846 -12.13895,65.4433 -36.41598,90.7761 -24.27756,25.3328 -53.83253,37.9993 -88.66499,37.9993 -19.70349,0 -38.17535,-4.574 -55.41563,-13.722 -17.24051,-9.148 -31.49023,-21.4625 -42.74919,-36.9438 l 0,147.775 c -7e-5,3.5184 -1.40745,6.5091 -4.22214,8.9721 -2.46299,2.4628 -5.45367,3.6943 -8.97206,3.6944 -3.51851,-10e-5 -6.50919,-1.2316 -8.97205,-3.6944 -2.46297,-2.463 -3.69442,-5.4537 -3.69437,-8.9721 m 25.86062,-230.1067 0,4.2221 c -7e-5,28.4996 9.67566,52.7769 29.02723,72.832 19.35136,20.0552 42.3972,30.2587 69.13759,30.6105 27.44372,-0.3518 50.8414,-10.5553 70.19312,-30.6105 19.35122,-20.0551 29.02695,-44.3324 29.02723,-72.832 -2.8e-4,-28.4993 -9.67601,-52.6007 -29.02723,-72.3042 -19.35172,-20.0549 -42.39755,-30.0825 -69.13759,-30.0828 -26.74038,3e-4 -49.78622,9.5001 -69.13758,28.4995 -18.99973,18.9998 -29.02731,42.2216 -30.08277,69.6654"
         id="path12638"
         style="font-family:Quicksand;-inkscape-font-specification:Quicksand"
         inkscape:connector-curvature="0" />
      <path
         d="m 1188.5529,1053.5962 c 2.4627,-2.4627 5.4534,-3.6941 8.9721,-3.6944 3.5182,3e-4 6.5088,1.2317 8.972,3.6944 2.4627,2.4632 3.6941,5.4538 3.6944,8.9721 l 0,233.2733 c -3e-4,3.5185 -1.2317,6.5092 -3.6944,8.9721 -2.4632,2.4629 -5.4538,3.6944 -8.972,3.6944 -3.5187,0 -6.5094,-1.2315 -8.9721,-3.6944 -2.4631,-2.4629 -3.6946,-5.4536 -3.6944,-8.9721 l 0,-38.527 c -11.2592,15.833 -25.509,28.3235 -42.7492,37.4715 -16.8887,9.148 -35.0087,13.722 -54.36,13.722 -33.7773,0 -62.6286,-12.6665 -86.554,-37.9993 -23.92547,-25.3328 -35.8882,-55.7674 -35.88818,-91.3039 -2e-5,-35.5362 11.96271,-65.9707 35.88818,-91.3038 23.9254,-25.3326 52.7767,-37.999 86.554,-37.9993 19.3513,3e-4 37.4713,4.5743 54.36,13.722 17.2402,9.1482 31.49,21.4628 42.7492,36.9437 l 0,-37.9992 c -2e-4,-3.5183 1.2313,-6.5089 3.6944,-8.9721 m -197.91292,125.6087 c -5e-5,28.8514 9.49972,53.4806 28.49942,73.8875 19.3514,20.0552 42.2214,30.0828 68.6099,30.0828 26.74,0 49.6099,-10.0276 68.6098,-30.0828 18.9994,-20.4069 28.4992,-45.0361 28.4994,-73.8875 -2e-4,-28.8511 -9.5,-53.4802 -28.4994,-73.8875 -18.9999,-20.4068 -41.8698,-30.6103 -68.6098,-30.6105 -26.3885,2e-4 -49.2585,10.2037 -68.6099,30.6105 -18.9997,20.4073 -28.49947,45.0364 -28.49942,73.8875"
         id="path12640"
         style="font-family:Quicksand;-inkscape-font-specification:Quicksand"
         inkscape:connector-curvature="0" />
      <path
         d="m 1433.5361,1308.5081 c -36.9438,0 -68.434,-12.4905 -94.4704,-37.4716 -25.6848,-25.3328 -38.5271,-55.9433 -38.5271,-91.8316 0,-36.2399 12.8423,-66.8504 38.5271,-91.8316 26.0364,-24.9807 55.9432,-37.4712 89.7205,-37.4715 34.1288,3e-4 63.156,9.5001 87.0817,28.4995 2.8145,1.7594 4.3978,4.3983 4.7499,7.9165 0.3516,3.5187 -0.7039,6.6853 -3.1666,9.4998 -5.2779,5.9816 -11.0834,6.6853 -17.4163,2.1111 -19.3517,-15.481 -42.7494,-23.2216 -70.1931,-23.2218 -27.4441,2e-4 -51.7214,10.2037 -72.832,30.6105 -20.7589,20.4073 -31.1384,45.0364 -31.1383,73.8875 -10e-5,28.8514 10.3794,53.4806 31.1383,73.8875 21.1106,20.0552 45.212,30.0828 72.3042,30.0828 27.4437,0 51.0173,-7.5646 70.7209,-22.694 6.3329,-4.574 12.1384,-3.6943 17.4163,2.6388 5.6293,6.3333 4.7497,12.3146 -2.6388,17.9441 -23.5739,18.296 -50.6659,27.444 -81.2763,27.444"
         id="path12642"
         style="font-family:Quicksand;-inkscape-font-specification:Quicksand"
         inkscape:connector-curvature="0" />
      <path
         d="m 1852.724,1170.2329 0,2.1111 c -3e-4,3.5185 -1.2317,6.3333 -3.6944,8.4442 -2.4631,2.1112 -5.4538,3.1668 -8.972,3.1667 l -212.1627,0 c 1.4074,28.1477 11.7868,51.7213 31.1383,70.7208 19.3514,18.9997 42.3972,28.4995 69.1376,28.4995 17.2403,0 33.2492,-4.2221 48.0269,-12.6664 14.7773,-8.4443 26.5641,-19.8792 35.3604,-34.3049 4.2219,-7.0369 9.8514,-8.4442 16.8886,-4.2222 7.0366,4.9259 8.444,10.9073 4.2221,17.9441 -11.2593,17.9442 -26.2127,32.1939 -44.8602,42.7492 -18.2962,10.5554 -38.1754,15.8331 -59.6378,15.8331 -34.8328,0 -64.5637,-12.4905 -89.1927,-37.4716 -24.2774,-25.3328 -36.4161,-55.7673 -36.416,-91.3038 -1e-4,-35.888 12.1386,-66.4985 36.416,-91.8316 24.629,-25.3326 53.8321,-37.999 87.6094,-37.9993 34.1288,3e-4 62.9801,11.6112 86.5539,34.8327 23.5734,22.8701 36.7676,51.3696 39.5826,85.4984 m -27.4439,-11.0831 c -4.2224,-24.2772 -15.4814,-44.3323 -33.7771,-60.1656 -18.2962,-15.8328 -39.5828,-23.7493 -63.86,-23.7495 -23.9256,2e-4 -45.0363,7.9167 -63.3321,23.7495 -18.296,15.4814 -29.9069,35.5366 -34.8327,60.1656 l 195.8019,0"
         id="path12644"
         style="font-family:Quicksand;-inkscape-font-specification:Quicksand"
         inkscape:connector-curvature="0" />
    </g>
  </g>
</svg>
